<svg xmlns="http://www.w3.org/2000/svg" viewBox="0 0 113.36 113.36"><g id="Calque_2" data-name="Calque 2"><g id="Calque_1-2" data-name="Calque 1"><rect width="113.36" height="113.36" style="fill:none"/><path d="M53.4,97s0,.15,1-.87c1.73-1.77,4.17-4.64,4.57-7.14.63-3.94-2.38-6.87,1-16.74s7-21.06,8.74-26.09S75.54,36,77.31,30.46a55.47,55.47,0,0,1,4-9.41S85.75,33.76,85,39.61s3.43,10.64.27,17.32S84,64.81,79.84,71.77,71,83.32,67,85.22,60.14,90.56,58.3,93a21,21,0,0,1-3.4,3.65C53.71,97.52,53.4,97,53.4,97Z" style="fill:#fcd3cf"/></g></g></svg>