<svg xmlns="http://www.w3.org/2000/svg" viewBox="0 0 113.36 113.36"><g id="Calque_2" data-name="Calque 2"><g id="Calque_1-2" data-name="Calque 1"><rect width="113.36" height="113.36" style="fill:none"/><path d="M56.81,94.26c.18-9.9,4.55-19.05,8-28.13s6.75-18,8.44-27.54A91.25,91.25,0,0,0,74.85,25.2a.18.18,0,0,0-.35,0,96.94,96.94,0,0,1-4.58,25.6c-2.93,9.5-7,18.56-10.28,27.92a49.93,49.93,0,0,0-3.18,15.54.18.18,0,0,0,.35,0Z" style="fill:#c03f4b"/><path d="M69.82,52.93a10.9,10.9,0,0,1-4.54-5A19.93,19.93,0,0,1,63.67,41a7.09,7.09,0,0,1,0-1.84.46.46,0,0,1,.13-.28.47.47,0,0,1,.48.05,12.5,12.5,0,0,1,5.15,5.26,10.68,10.68,0,0,1,1.14,6.68" style="fill:#c03f4b"/><path d="M73.49,37.3a8.54,8.54,0,0,0,4.87-2,15.5,15.5,0,0,0,3.41-4.34,5.36,5.36,0,0,0,.58-1.32.33.33,0,0,0,0-.24c-.06-.12-.23-.13-.36-.12a9.76,9.76,0,0,0-5.38,2,8.32,8.32,0,0,0-3,4.35" style="fill:#c03f4b"/><path d="M64.42,67.15A5.5,5.5,0,0,1,67,64.23c1-.68,2-1.38,2.94-2,2.23-1.48,4.56-2.76,6.88-4.07A26.85,26.85,0,0,0,82.64,54a34.89,34.89,0,0,0,4.65-6.22c.12-.19-.18-.36-.3-.17a31.51,31.51,0,0,1-5.18,6.7,36.67,36.67,0,0,1-7,4.52A73.42,73.42,0,0,0,68,63.08c-1.5,1.07-3.43,2.06-3.92,4-.06.21.28.31.33.09Z" style="fill:#c03f4b"/><path d="M77.16,57.58a20,20,0,0,1,1.34-9.52,15.46,15.46,0,0,1,6-7.12c1.15,5.3-2.57,13-6.87,16.33" style="fill:#c03f4b"/><path d="M72,44.8c.48-2.41-1.05-4.59-2.3-6.52a33,33,0,0,0-2.62-3.59,6.9,6.9,0,0,1-1.71-3.3c0-.21-.38-.12-.34.1a6.47,6.47,0,0,0,1.32,2.86c.92,1.16,1.85,2.27,2.67,3.51.45.69.88,1.39,1.3,2.11.88,1.47,1.7,3,1.35,4.73-.05.22.28.32.33.1Z" style="fill:#c03f4b"/><path d="M64.19,67.36c-2.52-3.32-4.64-6.9-5.1-11.12,0-.22-.37-.22-.34,0,.46,4.29,2.58,7.92,5.14,11.29.13.18.43,0,.3-.17Z" style="fill:#c03f4b"/><path d="M59.31,56.15a15.17,15.17,0,0,0-2.5-8.37,22.58,22.58,0,0,0-6.69-5.91c-1.16,3.5-.1,7.43,2,10.49s5.37,4,7.05,5.44" style="fill:#c03f4b"/><path d="M77.06,22.2c-1.29.61-2.17,1.41-2.14,2.29a13.16,13.16,0,0,0,.67,1.36c.45.95,1.57.52,3.1-.21s2.41-2.08,2-3S78.59,21.47,77.06,22.2Z" style="fill:#d05e6a;opacity:0.75"/><path d="M76.35,21.71c-.77.81-1.18,1.64-.91,2.27a7.37,7.37,0,0,0,.87.8c.6.57,1.29-.05,2.2-1s1.17-2.21.58-2.77S77.26,20.75,76.35,21.71Z" style="fill:#d94950"/><path d="M72,23.26c1,1.57,2.09,2.66,3,2.66a6.74,6.74,0,0,0,1.1-.76c.79-.51,0-1.87-1.21-3.74s-2.39-2.77-3.63-2.48C70.6,19.8,70.81,21.38,72,23.26Z" style="fill:#d94950"/><path d="M71.47,24.62c1.19,1.25,2.36,2,3.18,1.84.16,0,.85-.84,1-.95.68-.65-.25-1.75-1.66-3.24a4.65,4.65,0,0,0-3.81-1.53C69.2,20.75,70.05,23.12,71.47,24.62Z" style="fill:#d05e6a;opacity:0.8"/><path d="M73.05,22.36c.35,1.84.92,3.26,1.71,3.58a6.75,6.75,0,0,0,1.32-.28c.91-.17.71-1.72.3-3.92S75.23,18.26,74,18.06C73.05,18.62,72.64,20.16,73.05,22.36Z" style="fill:#d05e6a;opacity:0.7000000000000001"/><path d="M75.59,21.89c-1.08,1.56-1.72,2.95-1.46,3.71a5.86,5.86,0,0,0,1,.66c.69.48,1.65-.78,2.94-2.63s1.78-3.76,1.09-4.24S76.88,20,75.59,21.89Z" style="fill:#d05e6a;opacity:0.75"/><path d="M73.88,24c-.07,1.17.14,2.12.74,2.45a8.77,8.77,0,0,0,1.15.05c.81,0,.94-.93,1-2.33s-.5-2.57-1.3-2.61S74,22.6,73.88,24Z" style="fill:#d94950"/><path d="M74.83,23.3c-.68,1-1,1.87-.67,2.47a8.85,8.85,0,0,0,1,.65c.66.47,1.8-.16,2.61-1.3a2.29,2.29,0,0,0-.24-3C76.83,21.61,75.64,22.16,74.83,23.3Z" style="fill:#d05e6a"/><path d="M72.61,25a3,3,0,0,0,2.48,1.54c.13,0,.33-.34.44-.4.7-.38.29-1.28-.38-2.52s-1.79-1.94-2.5-1.56S71.93,23.74,72.61,25Z" style="fill:#d05e6a"/><path d="M89.59,48.88c-1.33-.48-2.52-.55-3.13.09A12.65,12.65,0,0,0,86,50.4c-.36,1,.72,1.48,2.32,2.06s3.18.26,3.54-.73S91.19,49.47,89.59,48.88Z" style="fill:#d05e6a;opacity:0.75"/><path d="M89.45,48c-1.12,0-2,.31-2.26.95a9.31,9.31,0,0,0,0,1.18c0,.83,1,.88,2.28.85s2.39-.71,2.37-1.53S90.77,48,89.45,48Z" style="fill:#d94950"/><path d="M85.31,46c-.4,1.84-.43,3.36.18,4a6.91,6.91,0,0,0,1.31.26c.91.2,1.33-1.31,1.81-3.5s.3-3.64-.78-4.32C86.77,42.6,85.79,43.86,85.31,46Z" style="fill:#d94950"/><path d="M84,46.6c-.06,1.72.2,3.11.92,3.56a6.75,6.75,0,0,0,1.35,0c.94,0,1.07-1.4,1.14-3.46a4.61,4.61,0,0,0-1.58-3.78C85.11,42.27,84,44.54,84,46.6Z" style="fill:#d05e6a;opacity:0.8"/><path d="M86.67,46.14c-1.07,1.54-1.68,2.94-1.35,3.73a6.58,6.58,0,0,0,1.12.74c.77.53,1.73-.7,3-2.54s1.66-3.25.92-4.29C89.33,43.51,88,44.3,86.67,46.14Z" style="fill:#d05e6a;opacity:0.7000000000000001"/><path d="M88.78,47.62c-1.86.32-3.31.85-3.66,1.56a5,5,0,0,0,.24,1.19c.14.82,1.71.63,3.94.24s3.92-1.36,3.78-2.19S91,47.23,88.78,47.62Z" style="fill:#d05e6a;opacity:0.75"/><path d="M86.08,47.88c-.88.78-1.41,1.59-1.22,2.25a8.82,8.82,0,0,0,.77.85c.53.61,1.32,0,2.37-.9s1.48-2.16,1-2.77S87.14,47,86.08,47.88Z" style="fill:#d94950"/><path d="M87.24,48.07c-1.15.19-2,.59-2.22,1.25a7.57,7.57,0,0,0,.2,1.14c.13.8,1.38,1.17,2.77.94a2.29,2.29,0,0,0,2-2.3C89.85,48.3,88.63,47.84,87.24,48.07Z" style="fill:#d05e6a"/><path d="M84.48,47.67a3.06,3.06,0,0,0,.65,2.85c.09.09.47,0,.59,0,.77.24,1.12-.69,1.53-2s.13-2.64-.64-2.87S84.9,46.31,84.48,47.67Z" style="fill:#d05e6a"/><path d="M68.17,28.83c0,2.45-.43,4.42-1.44,5a9.86,9.86,0,0,1-1.88,0c-1.32,0-1.43-2.05-1.43-5s1.06-5.32,2.37-5.32S68.17,25.89,68.17,28.83Z" style="fill:#d94950;opacity:0.6"/><path d="M65.28,28.39c1.43,2.05,2.23,3.93,1.76,5a9.56,9.56,0,0,1-1.54,1c-1.06.73-2.34-.92-4-3.37s-2.23-5-1.18-5.78S63.57,25.93,65.28,28.39Z" style="fill:#d94950;opacity:0.73"/><path d="M63.68,29.66c1.57.75,2.65,1.72,2.61,2.81a14.88,14.88,0,0,1-.82,1.65c-.55,1.17-1.91.65-3.79-.24s-3-2.56-2.4-3.72S61.8,28.77,63.68,29.66Z" style="fill:#d94950;opacity:0.8"/><path d="M67.57,31.86c.08,1.44-.17,2.6-.91,3a9.39,9.39,0,0,1-1.41.06c-1,.06-1.15-1.13-1.25-2.84s.62-3.15,1.6-3.21S67.47,30.15,67.57,31.86Z" style="fill:#d94950"/><path d="M70.06,32.73a4.13,4.13,0,0,1-3.18,2.13c-.16,0-.4-.43-.54-.5-.87-.47-.31-1.67.59-3.33s2.33-2.62,3.2-2.15S71,31.08,70.06,32.73Z" style="fill:#d94950;opacity:0.91"/><path d="M71.22,31.73c-1.1,1.81-2.38,3-3.62,2.85a16.23,16.23,0,0,1-1.79-1.13c-1.25-.77-.44-2.34.87-4.49s3.4-3.27,4.65-2.51S72.54,29.59,71.22,31.73Z" style="fill:#d94950;opacity:0.75"/></g></g></svg>