<svg xmlns="http://www.w3.org/2000/svg" viewBox="0 0 113.36 113.36"><g id="Calque_2" data-name="Calque 2"><g id="Calque_1-2" data-name="Calque 1"><rect width="113.36" height="113.36" style="fill:none"/><path d="M56.81,94.26c.16-8.84,3.71-17,6.86-25.09,3.3-8.45,6.58-17,8.65-25.84a76.15,76.15,0,0,0,2-15.18c0-.22-.34-.22-.35,0-.25,9.32-2.56,18.39-5.56,27.18-2.87,8.38-6.53,16.47-9.32,24.88a47.5,47.5,0,0,0-2.67,14.05.18.18,0,0,0,.35,0Z" style="fill:#c03f4b"/><path d="M73.56,33.67a122.61,122.61,0,0,1-.92-15.56,33.94,33.94,0,0,1,.28-4.94,27.94,27.94,0,0,1,6-12.84,13.9,13.9,0,0,1,2,5.88,22.85,22.85,0,0,1-.52,6.69A68.3,68.3,0,0,1,77,24.69,22.76,22.76,0,0,1,78.61,22c2.57-3.3,3.75-3.84,7.53-5.44,1.08,2.43.08,5.26-1.21,7.58a32.31,32.31,0,0,1-11,11.64" style="fill:#c03f4b"/><path d="M69.58,52.93a13.64,13.64,0,0,1-5.7-6.29,24.91,24.91,0,0,1-2-8.68,8.59,8.59,0,0,1,.06-2.32.54.54,0,0,1,.16-.35c.17-.13.42,0,.61.07A15.76,15.76,0,0,1,69.16,42a13.41,13.41,0,0,1,1.43,8.41" style="fill:#c03f4b"/><path d="M64.42,67.15A5.5,5.5,0,0,1,67,64.23c1-.68,2-1.38,2.94-2,2.23-1.48,4.56-2.76,6.88-4.07A26.85,26.85,0,0,0,82.64,54a34.89,34.89,0,0,0,4.65-6.22c.12-.19-.18-.36-.3-.17a31.51,31.51,0,0,1-5.18,6.7,36.67,36.67,0,0,1-7,4.52A73.42,73.42,0,0,0,68,63.08c-1.5,1.07-3.43,2.06-3.92,4-.06.21.28.31.33.09Z" style="fill:#c03f4b"/><path d="M77.16,57.58a20,20,0,0,1,1.34-9.52,15.46,15.46,0,0,1,6-7.12c1.15,5.3-2.57,13-6.87,16.33" style="fill:#c03f4b"/><path d="M85.28,49.92a13.58,13.58,0,0,1,5.88-6.56,22.74,22.74,0,0,1,8.52-2.7c-.36,3.67-2.93,6.84-6.05,8.8a32.12,32.12,0,0,1-10.4,3.68" style="fill:#c03f4b"/><path d="M72,44.8c.39-2.18-.74-4-1.83-5.77a80.25,80.25,0,0,0-4.62-6.64,33.11,33.11,0,0,1-3.92-6.16,31.13,31.13,0,0,1-2-8.25c0-.21-.37-.12-.33.1a36,36,0,0,0,1.61,7.26,24.59,24.59,0,0,0,3.33,5.83c1.41,1.94,2.9,3.82,4.23,5.82,1.46,2.18,3.71,4.93,3.22,7.71,0,.22.29.32.33.1Z" style="fill:#c03f4b"/><path d="M64.54,31.13a19.7,19.7,0,0,0,2.64-9.24,15.28,15.28,0,0,0-2.61-9c-3.21,4.39-2.94,12.94-.36,17.71" style="fill:#c03f4b"/><path d="M60.23,20.85a13.48,13.48,0,0,0-2.71-8.37,22.58,22.58,0,0,0-6.69-5.91c-1.16,3.5-.1,7.44,2,10.49s5,5.39,8,7.56" style="fill:#c03f4b"/><path d="M64.19,67.36c-2.52-3.32-4.64-6.9-5.1-11.12,0-.22-.37-.22-.34,0,.46,4.29,2.58,7.92,5.14,11.29.13.18.43,0,.3-.17Z" style="fill:#c03f4b"/><path d="M59.31,56.15a15.17,15.17,0,0,0-2.5-8.37,22.58,22.58,0,0,0-6.69-5.91c-1.16,3.5-.1,7.43,2,10.49s5.37,4,7.05,5.44" style="fill:#c03f4b"/></g></g></svg>