<svg xmlns="http://www.w3.org/2000/svg" viewBox="0 0 113.36 113.36"><g id="Calque_2" data-name="Calque 2"><g id="Calque_1-2" data-name="Calque 1"><rect width="113.36" height="113.36" style="fill:none"/><path d="M56.89,93.44c-1.67-4.93,1-10.32,4.32-14.29s7.62-7.28,10.14-11.84a5.94,5.94,0,0,1,1.22-1.74,1.67,1.67,0,0,1,2-.22,2.21,2.21,0,0,1,.66,1,19,19,0,0,1-5.94,21.47c-3.68,2.81-8.43,4.25-11.39,7.8" style="fill:#9d2125"/><path d="M58.28,95a32.65,32.65,0,0,0-29.71-19.7c4.31,3.55,7.85,7.94,12,11.73s9.06,7,14.62,7.56" style="fill:#9d2125"/><path d="M57.1,94.62a33,33,0,0,0-9.49-.6,22.43,22.43,0,0,0-10.86,5,67,67,0,0,0-8.49,8.6c2.21-.68,4.57-.11,6.86.08A21.75,21.75,0,0,0,54.8,98.06" style="fill:#9d2125"/><path d="M56,95.39a12.62,12.62,0,0,0-1.92,4.85,58.87,58.87,0,0,0,0,7.4,25.48,25.48,0,0,0,1.08,5.47A9.79,9.79,0,0,0,60,108c.87-2.23,1.49-9,.2-11.07" style="fill:#9d2125"/><path d="M59.16,94.31c4.16-2.49,9.59-1.26,13.87,1s8.07,5.53,12.61,7.24c-4.58,1.53-9.63,1.08-14.24-.35A69.67,69.67,0,0,1,58.33,96" style="fill:#9d2125"/><path d="M57.7,92.9c-.55.08-1.11.06-1.66.15a2.25,2.25,0,0,0-1.46.74.9.9,0,0,0-.18.35,1,1,0,0,0,.13.73,1.82,1.82,0,0,0,1.08.77,6.14,6.14,0,0,0,1.35.15h.74a1.86,1.86,0,0,0,.74-.08A1.25,1.25,0,0,0,59,94a2.41,2.41,0,0,0-1.57-1.16" style="fill:#e45055"/></g></g></svg>
