<svg xmlns="http://www.w3.org/2000/svg" viewBox="0 0 113.36 113.36"><g id="Calque_2" data-name="Calque 2"><g id="Calque_1-2" data-name="Calque 1"><path d="M62.24,66.32c3.23,11.37,3.84,21-.05,25.14-.76.8-7.78,2-8.77,2.28-6.06,1.72-9.3-7.62-13.15-21.19s-2.06-26,4-27.69S58.39,52.74,62.24,66.32Z" style="fill:#e8828b;opacity:0.7000000000000001"/><path d="M48.31,68.08C57.62,75.71,63.78,83.36,63,88.94c-.14,1.08-5.15,6-5.79,6.74-3.93,4.79-12-1.15-23.16-10.27S17.15,65,21.08,60.24,37.2,59,48.31,68.08Z" style="fill:#e8828b;opacity:0.85"/><path d="M62,79.54c2.27,6.52,2.64,12.22-.26,15-.56.54-5.73,1.88-6.46,2.13-4.47,1.56-6.77-3.74-9.49-11.52s-1.28-15.35,3.19-16.91S59.25,71.76,62,79.54Z" style="fill:#fcd3cf"/><path d="M80.19,75.76c-2.73,9.78-7.12,17-13,17.9-1.15.19-8.62-2.58-9.72-2.89-6.81-1.9-5.14-10.23-1.88-21.89S67,49.3,73.76,51.2,83.44,64.1,80.19,75.76Z" style="fill:#e8828b;opacity:0.8"/><path d="M42.58,76.08c8.25,1.39,14.51,4.47,15.76,9.53.24,1-1.44,7.75-1.61,8.74-1,6.11-8,5.5-17.87,3.84s-17-7.94-16-14S32.72,74.43,42.58,76.08Z" style="fill:#e8828b;opacity:0.9500000000000001"/><path d="M64.59,82.25c1.41,6.76,1,12.47-2.2,14.88-.63.47-5.93,1.12-6.68,1.28-4.64,1-6.24-4.58-7.92-12.65s.71-15.39,5.35-16.36S62.9,74.19,64.59,82.25Z" style="fill:#e8828b"/><path d="M76.14,81.91c-1.67,7.4-8,13-11.93,14-.77.2-2.41-1.45-3.16-1.62-4.62-1-3.64-7.32-1.66-16.16S66.74,63,71.37,64,78.13,73.06,76.14,81.91Z" style="fill:#e8828b;opacity:0.7000000000000001"/><rect width="113.36" height="113.36" style="fill:none"/></g></g></svg>