<svg xmlns="http://www.w3.org/2000/svg" viewBox="0 0 113.36 113.36"><g id="Calque_2" data-name="Calque 2"><g id="Calque_1-2" data-name="Calque 1"><rect width="113.36" height="113.36" style="fill:none"/><path d="M56.64,96.08A99.87,99.87,0,0,1,61,78,132.44,132.44,0,0,1,67.81,62C73,51.56,78.66,41.21,85.54,31.73a86.91,86.91,0,0,1,13-14.6c.32-.28-.15-.74-.46-.46-8.86,7.7-15.63,17.64-21.54,27.69-3,5.09-5.78,10.31-8.44,15.58a156,156,0,0,0-7,15.57A100.13,100.13,0,0,0,56,95.91c-.06.41.57.59.63.17Z" style="fill:#ea98a3"/><path d="M104.05,17.17a8.87,8.87,0,0,1-3.19,3.75c-1.59,1-2.74-.4-4.27-1.11-1.17-.54-3.34-.2-3.79-1.47a7.61,7.61,0,0,1,.53-5.84C95,8.83,103.26,5.76,103.4,5,105.47,6.85,105.74,13.5,104.05,17.17Z" style="fill:#ea98a3"/><path d="M105.81,35.07a8.19,8.19,0,0,1-4.57.73c-1.75-.25-1.72-1.95-2.38-3.4-.51-1.1-2.27-2.18-1.81-3.36a7.15,7.15,0,0,1,4-3.86c3.45-1.59,11.22,1.25,11.79.76C113.13,28.56,109.27,33.48,105.81,35.07Z" style="fill:#ea98a3"/><path d="M85.73,76.64a9.57,9.57,0,0,1-5.36.58c-2-.4-1.87-2.37-2.56-4.09-.52-1.31-2.5-2.67-1.9-4a8.29,8.29,0,0,1,4.82-4.23c4.1-1.64,13,2.12,13.65,1.59C94.61,69.53,89.83,75,85.73,76.64Z" style="fill:#ea98a3"/><path d="M60.64,52.26a7.79,7.79,0,0,1-.82,4.32c-.78,1.48-2.67,0-3.79,1-.8.72-2.06.76-3.71,0s-1.86-2.09-2-4.18c-.31-3.59,2.55-9.8,4.46-10.28C57.51,41.78,60.32,48.67,60.64,52.26Z" style="fill:#ea98a3"/><path d="M62,27.55a8.52,8.52,0,0,0,.7,4.73c.78,1.64,2.44,1.08,4.07,1.29,1.24.16,2.85,1.55,3.87.74a7.33,7.33,0,0,0,2.57-5.08c.5-3.89-4.69-10.65-4.39-11.37C66.18,18.34,62.54,23.66,62,27.55Z" style="fill:#ea98a3"/><path d="M92.79,48a8.17,8.17,0,0,0-4.53-.77c-1.73.24-1.71,1.92-2.38,3.35-.51,1.09-2.26,2.14-1.82,3.32a7.06,7.06,0,0,0,3.88,3.85c3.41,1.61,11.12-1.14,11.69-.65C100,54.54,96.2,49.63,92.79,48Z" style="fill:#ea98a3"/><path d="M86.45,15.33a7.64,7.64,0,0,1,.67,4.25c-.24,1.62-1.81,1.58-3.16,2.2-1,.47-2,2.09-3.13,1.67a6.66,6.66,0,0,1-3.57-3.67c-1.46-3.21,1.18-10.41.73-11C80.42,8.52,85,12.12,86.45,15.33Z" style="fill:#ea98a3"/><path d="M82.9,18.77C81.82,23,84.06,27,86.17,30.49c.22.36.79,0,.57-.33C84.73,26.81,82.5,23,83.53,19c.1-.41-.53-.59-.63-.18Z" style="fill:#ea98a3"/><path d="M74.57,48.85a32.89,32.89,0,0,1,18.28,4.31.33.33,0,0,0,.33-.56,33.44,33.44,0,0,0-18.61-4.4c-.42,0-.42.67,0,.65Z" style="fill:#ea98a3"/><path d="M73.19,50.59a11.88,11.88,0,0,1-2.53-4,39.08,39.08,0,0,1-2-6,42.62,42.62,0,0,1-1.49-12.35c0-.43-.63-.42-.65,0a43.11,43.11,0,0,0,1.58,12.82c.86,3.33,2,7.54,4.59,10,.31.29.77-.17.46-.46Z" style="fill:#ea98a3"/><path d="M63.73,69.17c-1.4-.79-2.35-2.47-3.14-3.81a43.28,43.28,0,0,1-2.76-5.64,47.38,47.38,0,0,1-3.61-13.94c0-.41-.69-.42-.65,0a47.7,47.7,0,0,0,3.78,14.5A44.36,44.36,0,0,0,60.21,66a10.11,10.11,0,0,0,3.19,3.73.33.33,0,0,0,.33-.57Z" style="fill:#ea98a3"/><path d="M62.59,72.4c3.43.1,6.83.83,10.27.95A40.94,40.94,0,0,0,88.72,71c.39-.14.22-.78-.18-.63a40.55,40.55,0,0,1-16,2.33c-3.33-.14-6.62-.84-9.94-.93-.42,0-.42.64,0,.65Z" style="fill:#ea98a3"/><path d="M82.62,36.09a7.37,7.37,0,0,1,3.49-1.26c1.28-.23,2.56-.47,3.83-.72,2.55-.5,5.09-1,7.62-1.65A91.43,91.43,0,0,0,112,27.73c.39-.16.06-.73-.33-.56a93.36,93.36,0,0,1-15.49,4.94c-2.53.59-5.08,1.11-7.63,1.6-2.13.4-4.67.48-6.4,1.91-.33.27.14.74.46.47Z" style="fill:#ea98a3"/></g></g></svg>