<svg xmlns="http://www.w3.org/2000/svg" viewBox="0 0 113.36 113.36"><g id="Calque_2" data-name="Calque 2"><g id="Calque_1-2" data-name="Calque 1"><rect width="113.36" height="113.36" style="fill:none"/><path d="M59.86,33.36a10,10,0,0,0-.33-3.81,5.28,5.28,0,0,0-3-2,2.94,2.94,0,0,0-2,.23,2.52,2.52,0,0,0-1.65-1.15c-.12,0-1.47-.57-1.59-.59a2.66,2.66,0,0,0-.8,0c-.07-.5-.13-1-.17-1.5a1.42,1.42,0,0,0,.82-1.16s0,0,0-.06a2.15,2.15,0,0,0,.45.14c.5.07,1.19.25,1.59,0s.63-1.26.72-1.87a2.12,2.12,0,0,0-.08-.91,1.29,1.29,0,0,0,1-1.08c0-.07.07-.73.13-1.18A1.32,1.32,0,0,0,54.11,17a4,4,0,0,0-.43-1.71,3.21,3.21,0,0,0-2-.9,1.61,1.61,0,0,0-.7.05,1.8,1.8,0,0,0-.51-.16,3.72,3.72,0,0,0-2.33.45,1.17,1.17,0,0,0-.43.87,1.29,1.29,0,0,0-.63-.28,3.27,3.27,0,0,0-1.87.51,3,3,0,0,0-.85,2A2.1,2.1,0,0,0,45,19.19a1.41,1.41,0,0,0-.18.71c0,2.49,1.22,3.06,2.3,3.24,0,.89.8,1.4,1.79,1.54h0c.07.68.15,1.36.26,2a3.49,3.49,0,0,0-.63.83l-.06,0a4.34,4.34,0,0,0-2.62-.18c-.9.43-1.33,1.67-1.59,2.71a3.58,3.58,0,0,0-.06,1.3,2.56,2.56,0,0,0-.62,1.17,6.38,6.38,0,0,0,.36,4,1.74,1.74,0,0,0,1.07.78,2,2,0,0,0-.26.59,6,6,0,0,0,0,2c-2.29,2.81-4.92,5.42-7,8.4a62.45,62.45,0,0,0,0-10.05,1.9,1.9,0,0,0,1.2-.06,2.11,2.11,0,0,0,1.26-1.17,1.8,1.8,0,0,0-.22-1.31.52.52,0,0,0,.19-.24,4.5,4.5,0,0,0-.88-3.87,1.7,1.7,0,0,0-1.16-1.5c-.9-.42-1.83-.37-2.26.54,0,0,0,0,0,.05a1.63,1.63,0,0,0-.35-.23c-.41-.19-1-.52-1.35-.41s-.87.9-1.1,1.4a1.83,1.83,0,0,0-.16.91,1.31,1.31,0,0,0-.92.78l-.13.22c0-.08,0-.16,0-.24-.06-.37-.1-.75-.15-1.12a.6.6,0,0,0-.08-.57,51.44,51.44,0,0,1-.35-9.2.61.61,0,0,0,.51-.2,18.29,18.29,0,0,1,3.49-3.21,1.22,1.22,0,0,0-.19.8c.09.35.5.59.86.76a1.22,1.22,0,0,0,.82.07,1.26,1.26,0,0,0,.44.41,1.84,1.84,0,0,0,1.33.08.72.72,0,0,0,.48-.52,1.18,1.18,0,0,0,.25.19,1.22,1.22,0,0,0,.92,0,1.46,1.46,0,0,0,.89-.81,1.29,1.29,0,0,0-.15-.92.48.48,0,0,0,.13-.17A3.13,3.13,0,0,0,40.47,16a1.18,1.18,0,0,0-.8-1,1.1,1.1,0,0,0-1.54.32A2.87,2.87,0,0,0,36.88,15a1.6,1.6,0,0,0-1.54,1.2,1.13,1.13,0,0,0,.07.89l-.06.08,0,.05a19.72,19.72,0,0,0-3.85,3.21,38.4,38.4,0,0,1,1.26-6.7.63.63,0,0,0-.06-.53A1.81,1.81,0,0,0,34,11.28s0,0,0-.07a2.09,2.09,0,0,0,.56.06,3,3,0,0,0,1.72-.76,2.48,2.48,0,0,0,.62-2,2.82,2.82,0,0,0-.1-.58,5.54,5.54,0,0,0,.7-1.58,4.58,4.58,0,0,0,0-1.95c-.13-.91-1-1.31-1.9-1.43a3.06,3.06,0,0,0-.4-1.81A2.8,2.8,0,0,0,33.08.65a2.37,2.37,0,0,0-.89.21,1.77,1.77,0,0,0-.92-.18,4.46,4.46,0,0,0-2.67,1,1.09,1.09,0,0,0-.29.6,3.72,3.72,0,0,0-2.95,1.36,3.67,3.67,0,0,0-.57,2.61,2.49,2.49,0,0,0,1.91,1.8,1.9,1.9,0,0,0-.58,1.38c.05,1.31,1.71,2.42,3,2.44a2,2,0,0,0,2.18,1.43A44.15,44.15,0,0,0,30.1,30.09a46.6,46.6,0,0,0-6.69-4.8,2,2,0,0,0-.43-.5l0,0a2.89,2.89,0,0,0,.44-1.66c-.16-.63-.9-1.06-1.54-1.36a2.3,2.3,0,0,0-1.15-.19,1.5,1.5,0,0,0-.81-.94,4.42,4.42,0,0,0-2.68.13,1.49,1.49,0,0,0-.81.94,2.27,2.27,0,0,0-.51-.34,2.15,2.15,0,0,0-1.65,0,2.57,2.57,0,0,0-1.58,1.46A2.31,2.31,0,0,0,13,24.5a.76.76,0,0,0-.23.29c-.5,1.07.09,4.1,1.11,4.89a2.15,2.15,0,0,0,1.46,1.85c1.13.53,2.3.46,2.83-.67a.19.19,0,0,0,0-.07,2.57,2.57,0,0,0,.44.29c.51.24,1.2.66,1.7.52s1.08-1.14,1.38-1.76a2.22,2.22,0,0,0,.19-1.15,1.6,1.6,0,0,0,1.16-1l.44-.71a45.24,45.24,0,0,1,6.88,5.21,109.24,109.24,0,0,0,3.51,15.62c.27.92.54,1.84.8,2.76-.77-.41-1.56-.8-2.36-1.15-.13-1.52-.91-2.7-2.49-2.7h-.09a3,3,0,0,0,.1-.72c0-.78.12-1.9-.35-2.45s-2.06-.69-3-.69a3.1,3.1,0,0,0-1.56.43A2.21,2.21,0,0,0,23,42.43c-.11,0-1.42-.18-1.53-.16a2.41,2.41,0,0,0-2.11,1.95h0a4,4,0,0,0-2.35.42,3.6,3.6,0,0,0-.8,2.74,3.14,3.14,0,0,0,.22,1.15,2.34,2.34,0,0,0-.28,1.18,5.83,5.83,0,0,0,1.19,3.48,2.38,2.38,0,0,0,1.9.46l.36,0a3,3,0,0,0-.4,1.5,3.35,3.35,0,0,0,.48,2.32,4.7,4.7,0,0,0,3.31.87A3.2,3.2,0,0,0,25.32,56a2.47,2.47,0,0,0,1.74.82c1.69,0,3.19-2.06,3.29-3.78a2.38,2.38,0,0,0,1.86-2,27.24,27.24,0,0,1,3,1.58c2.77,9.49,5.79,19,10.7,27.59A85.15,85.15,0,0,0,57,95.33c.62.68,1.63-.33,1-1A84.79,84.79,0,0,1,41.11,66.2c-1.57-4.32-2.91-8.72-4.21-13.13a.05.05,0,0,0,0,0,26.85,26.85,0,0,1,4.95-7.44c1.12-1.32,2.28-2.62,3.4-4a.25.25,0,0,0,0,.09,5.12,5.12,0,0,0,3.31,1.8,3.49,3.49,0,0,0,3.19-1.87A2.71,2.71,0,0,0,53.45,43c1.81.45,4-1.36,4.52-3.16,1.52.08,2.52-1.12,2.93-2.77S61,34.07,59.86,33.36ZM32.77,37.87l.2.1a1.75,1.75,0,0,0,.92.16,1.16,1.16,0,0,0,.65.74,3.1,3.1,0,0,0,1.9,0,62.68,62.68,0,0,1-.24,11.86c-.07-.21-.13-.42-.19-.64C34.82,46,33.66,42,32.77,37.87Z" style="fill:#fcd3cf"/></g></g></svg>