<svg xmlns="http://www.w3.org/2000/svg" viewBox="0 0 113.36 113.36"><g id="Calque_2" data-name="Calque 2"><g id="Calque_1-2" data-name="Calque 1"><path d="M40.9,87.6c4.82,5.07,9.56,8.27,12.89,7.49.64-.15,3.45-3.43,3.9-3.86,2.77-2.63-1-7.1-6.75-13.16s-11.35-6.26-15.43-6.21C31.69,71.91,35.15,81.54,40.9,87.6Z" style="fill:#d05e6a;opacity:0.8"/><path d="M47.31,78.43C48.71,85.91,51,91.65,54.26,93c.62.25,4.72-1,5.32-1.13,3.73-.7,2.9-7,1.23-15.93S56.15,61.81,51,61C47.31,63.24,45.64,69.5,47.31,78.43Z" style="fill:#d05e6a;opacity:0.7000000000000001"/><path d="M57.61,76.53c-4.39,6.32-7,12-5.91,15,.21.59,3.63,2.37,4.09,2.68,2.79,1.95,6.71-3.15,11.95-10.69S75,68.35,72.16,66.4,62.85,69,57.61,76.53Z" style="fill:#d05e6a;opacity:0.75"/><path d="M63.57,77.8c-5.22,2.47-8.79,5.69-8.66,9.29,0,.69,2.41,4.86,2.71,5.49,1.83,3.86,6.35,2.14,12.58-.81s9.79-8.48,8-12.33S69.8,74.84,63.57,77.8Z" style="fill:#d05e6a;opacity:0.75"/><path d="M50.68,85.1c-.28,4.75.55,8.6,3,9.92.47.26,4.16.17,4.69.2,3.26.2,3.79-3.75,4.12-9.42s-2-10.43-5.3-10.62S51,79.42,50.68,85.1Z" style="fill:#d05e6a"/><path d="M43.88,88.31c2.29,4.23,6.79,6.7,9.17,6.76.46,0,1.05-1.22,1.44-1.42,2.35-1.28.64-4.92-2.09-10s-6.87-8.1-9.22-6.82S41.14,83.27,43.88,88.31Z" style="fill:#d05e6a"/><rect width="113.36" height="113.36" transform="translate(113.36 113.36) rotate(-180)" style="fill:none"/></g></g></svg>