<svg xmlns="http://www.w3.org/2000/svg" viewBox="0 0 113.36 113.36"><g id="Calque_2" data-name="Calque 2"><g id="Calque_1-2" data-name="Calque 1"><path d="M70.42,11A18.11,18.11,0,0,1,75,10.92a3.57,3.57,0,0,1,1.17.38,1.2,1.2,0,0,1,.65,1,1.57,1.57,0,0,0,.14.89c.2.3.51-.11.51-.11A15.86,15.86,0,0,0,82,10.14a5.14,5.14,0,0,0,2-3.35c.07-1.33-1.11-2.75-2.41-2.47-.5.11-1.23.32-1.37-.17a.93.93,0,0,1,0-.44,2.08,2.08,0,0,0,0-1.35,1.83,1.83,0,0,0-2.61-.5A5.35,5.35,0,0,0,75.9,4.27c.22-1.18.36-2.6-.55-3.4a2.38,2.38,0,0,0-2.66-.1,7,7,0,0,0-2,2,2,2,0,0,0-3.55-.67c-.77,1-.51,2.39-.09,3.56a18.72,18.72,0,0,0,2,4.08S69.53,11.05,70.42,11Z" style="fill:#c03f4b"/><path d="M71.33,8.16S70.77,5,72.27,3.6s4.06,1.25,3.5,4.49a3.59,3.59,0,0,1-3.25,3.31Z" style="fill:#cd555f"/><path d="M68.43,8.52s-1.53-1.89-1-3.34,3.13-.65,3.94,1.69a2.7,2.7,0,0,1-.94,3.36Z" style="fill:#cd555f"/><path d="M74.71,8.73s1.87-2.63,3.9-2.53,2,3.77-.75,5.64a3.58,3.58,0,0,1-4.63,0Z" style="fill:#cd555f"/><rect width="113.36" height="113.36" style="fill:none"/><path d="M70,19.93s2.36-2.9,1.53-5.33-1.69-2.7-2-4.08a6.81,6.81,0,0,1,.25-2.95,3.86,3.86,0,0,1,3,3.12c.24.79.55.16.9-.31s.89-2.3,2.31-3a4.8,4.8,0,0,1,.62,3.06c-.08.47,0,.43.35.35a5.92,5.92,0,0,1,2.68-.26,4.22,4.22,0,0,1-2.4,3.4c-1.06.66-2.71.11-4.59,2.54a13.6,13.6,0,0,0-2.24,3.61Z" style="fill:#844439"/><path d="M71.86,15.69A170.3,170.3,0,0,0,62,45.13a193,193,0,0,0-5.62,31.45A119.85,119.85,0,0,0,56.3,95c0,.49.81.5.77,0a130.2,130.2,0,0,1,1.85-32.2A241.49,241.49,0,0,1,66.3,32.51a144,144,0,0,1,6.22-16.43c.2-.45-.46-.84-.66-.39Z" style="fill:#844439"/><path d="M66,30.58a15.78,15.78,0,0,1-8.74-6.14,2.26,2.26,0,0,1-.49-2.21,1.46,1.46,0,0,1,1.14-.7,2.76,2.76,0,0,1,1.36.23,9.75,9.75,0,0,1,3.6,2.88,14.61,14.61,0,0,1,3.55,6" style="fill:#844439"/><path d="M66.12,30.21A15.47,15.47,0,0,1,58.19,25c-.48-.59-1.26-1.47-1.15-2.29.16-1.14,1.64-.83,2.35-.5a11.55,11.55,0,0,1,3.82,3.38,13.31,13.31,0,0,1,2.86,5.14c.12.48.86.27.74-.21a13.86,13.86,0,0,0-2.9-5.29,12,12,0,0,0-4.37-3.79,2.62,2.62,0,0,0-2.65.1,1.88,1.88,0,0,0-.35,2.37,9.69,9.69,0,0,0,1.7,2.32,15,15,0,0,0,2,1.88A16.24,16.24,0,0,0,65.92,31a.38.38,0,0,0,.2-.74Z" style="fill:#844439"/><path d="M65.5,33.82c1.21-2,3.46-3,5.65-3.75s4.88-1.27,7.19-.48c.47.16,1,.45,1.07.94s-.53,1.11-1.09,1.4A21,21,0,0,1,65.43,34" style="fill:#844439"/><path d="M65.83,34a9.53,9.53,0,0,1,5.23-3.5,16.58,16.58,0,0,1,3.82-.89,6.63,6.63,0,0,1,3.71.49c1.51.87-1.55,2-2.16,2.27a21.19,21.19,0,0,1-3.4,1,20.73,20.73,0,0,1-7.49.22c-.49-.07-.7.67-.21.74a21.83,21.83,0,0,0,6.94,0,17.8,17.8,0,0,0,6.59-2.29,1.58,1.58,0,0,0,.85-1.86c-.35-.82-1.45-1.09-2.24-1.24a13.57,13.57,0,0,0-6.92.91,10.11,10.11,0,0,0-5.38,3.75c-.27.42.4.81.66.39Z" style="fill:#844439"/><path d="M63.06,41.67a12.7,12.7,0,0,1-4.57-2.44,8.48,8.48,0,0,1-2.77-4.32,1.16,1.16,0,0,1,0-.82,1.06,1.06,0,0,1,1.05-.38A5,5,0,0,1,59.45,35,10.5,10.5,0,0,1,63,41.74" style="fill:#844439"/><path d="M63.16,41.3a10.57,10.57,0,0,1-6.6-5.18c-.17-.36-.84-1.66-.38-1.95s1.44.11,1.89.36a8.56,8.56,0,0,1,3,2.91,10.2,10.2,0,0,1,1.56,4.3c.06.49.83.49.77,0a11,11,0,0,0-1.57-4.53,9.3,9.3,0,0,0-3.44-3.41,3.37,3.37,0,0,0-2.21-.43c-.79.2-1,.93-.78,1.64a8.7,8.7,0,0,0,2.53,4.19A13.06,13.06,0,0,0,63,42c.48.15.68-.59.21-.74Z" style="fill:#844439"/><path d="M60,55.19A9.73,9.73,0,0,1,67.6,50a3.33,3.33,0,0,1,1.44.1,1.54,1.54,0,0,1,1,1,1.61,1.61,0,0,1-.48,1.51,4.24,4.24,0,0,1-1.42.84,31.6,31.6,0,0,1-8.22,2.24" style="fill:#844439"/><path d="M60.3,55.39a9.45,9.45,0,0,1,6.07-4.81,6.17,6.17,0,0,1,2.09-.23c.83.08,1.57.72,1.11,1.59a3.62,3.62,0,0,1-1.95,1.27c-.76.31-1.54.59-2.32.84a31.91,31.91,0,0,1-5.46,1.22c-.49.07-.28.81.21.74A31.57,31.57,0,0,0,66,54.64a26.1,26.1,0,0,0,2.71-1,3,3,0,0,0,1.69-1.53,1.68,1.68,0,0,0-.46-1.94,3,3,0,0,0-2.29-.54,10.08,10.08,0,0,0-8,5.41c-.23.44.44.83.66.39Z" style="fill:#844439"/><path d="M59.93,55.76c-2.7-1.13-5.48-2.31-7.52-4.42-.43-.44-.84-1.08-.57-1.63a1.22,1.22,0,0,1,.73-.56,3.91,3.91,0,0,1,2.77.37c2.49,1.12,4.66,3.37,4.9,6.1" style="fill:#844439"/><path d="M60,55.39c-2.59-1.09-5.31-2.22-7.31-4.27a2,2,0,0,1-.56-.84c-.12-.43.2-.67.57-.78a3.29,3.29,0,0,1,2.16.25,8.8,8.8,0,0,1,3.18,2.17,6.37,6.37,0,0,1,1.77,3.7c0,.49.82.5.77,0-.3-3-2.69-5.48-5.45-6.59a4.23,4.23,0,0,0-2.43-.33,1.53,1.53,0,0,0-1.37,1.44,3.07,3.07,0,0,0,1.27,2,14.09,14.09,0,0,0,2,1.48,33.81,33.81,0,0,0,5.24,2.55c.46.19.66-.55.21-.74Z" style="fill:#844439"/><path d="M57.87,67.49A6.4,6.4,0,0,1,60.53,64a8,8,0,0,1,5.2-2,1.72,1.72,0,0,1,1.39.65c.43.69-.07,1.6-.68,2.15a9.83,9.83,0,0,1-2.93,1.69,37.55,37.55,0,0,1-6.11,2" style="fill:#844439"/><path d="M58.24,67.6a5.92,5.92,0,0,1,2.32-3.14,9.61,9.61,0,0,1,3.83-2,3.51,3.51,0,0,1,2,0c.82.35.51,1.22.06,1.75a9.72,9.72,0,0,1-4,2.23,37.24,37.24,0,0,1-5.17,1.6.38.38,0,0,0,.21.74,37.8,37.8,0,0,0,5.59-1.77c1.5-.6,3.45-1.32,4.28-2.83a1.72,1.72,0,0,0,0-1.93,2.38,2.38,0,0,0-1.85-.71,8,8,0,0,0-4.69,1.75c-1.43,1-2.89,2.28-3.3,4.06-.12.48.62.69.74.21Z" style="fill:#844439"/></g></g></svg>