<svg xmlns="http://www.w3.org/2000/svg" viewBox="0 0 113.36 113.36"><g id="Calque_2" data-name="Calque 2"><g id="Calque_1-2" data-name="Calque 1"><path d="M61.59,82.52c-3.8,1.81-6.4,4.16-6.31,6.77a33,33,0,0,0,2,4c1.34,2.81,4.63,1.56,9.17-.59s7.14-6.18,5.81-9S66.13,80.37,61.59,82.52Z" style="fill:#d05e6a;opacity:0.75"/><path d="M59.5,81.07c-2.27,2.39-3.5,4.84-2.7,6.72a26.55,26.55,0,0,0,2.58,2.37c1.77,1.67,3.82-.17,6.52-3s3.46-6.53,1.69-8.2S62.2,78.21,59.5,81.07Z" style="fill:#d94950"/><path d="M46.72,85.65c3,4.65,6.18,7.88,8.72,7.86.49,0,2.9-2,3.27-2.23,2.32-1.51,0-5.53-3.6-11.08s-7-8.2-10.73-7.32C42.5,75.42,43.11,80.1,46.72,85.65Z" style="fill:#d94950"/><path d="M45.07,89.67c3.51,3.7,7,6,9.39,5.46.47-.11,2.52-2.5,2.84-2.82,2-1.91-.72-5.17-4.91-9.59A13.66,13.66,0,0,0,41.14,78.2C38.35,78.23,40.88,85.25,45.07,89.67Z" style="fill:#d05e6a;opacity:0.8"/><path d="M49.74,83c1,5.45,2.72,9.64,5.07,10.59.45.19,3.44-.73,3.88-.82,2.71-.51,2.1-5.1.89-11.61s-3.4-10.27-7.13-10.86C49.74,71.91,48.52,76.48,49.74,83Z" style="fill:#d05e6a;opacity:0.7000000000000001"/><path d="M57.25,81.6c-3.2,4.6-5.1,8.74-4.31,11,.15.43,2.65,1.72,3,2,2,1.42,4.89-2.29,8.71-7.79s5.26-11.1,3.22-12.51S61.07,76.11,57.25,81.6Z" style="fill:#d05e6a;opacity:0.75"/><path d="M52.19,87.84c-.2,3.47.41,6.28,2.19,7.24a22.8,22.8,0,0,0,3.42.14c2.38.14,2.76-2.73,3-6.87s-1.49-7.6-3.87-7.74S52.44,83.71,52.19,87.84Z" style="fill:#d94950"/><path d="M55,85.78c-2,2.83-3,5.53-2,7.29A22.27,22.27,0,0,0,55.84,95c1.95,1.38,5.33-.48,7.72-3.86s1.23-7.61-.71-9S57.39,82.4,55,85.78Z" style="fill:#d05e6a"/><path d="M48.42,90.76a9.06,9.06,0,0,0,7.34,4.57c.39,0,1-1,1.31-1.18,2.08-1.13.87-3.8-1.13-7.48s-5.3-5.74-7.37-4.61S46.42,87.08,48.42,90.76Z" style="fill:#d05e6a"/><rect width="113.36" height="113.36" transform="translate(113.36 113.36) rotate(-180)" style="fill:none"/></g></g></svg>