<svg xmlns="http://www.w3.org/2000/svg" viewBox="0 0 113.36 113.36"><g id="Calque_2" data-name="Calque 2"><g id="Calque_1-2" data-name="Calque 1"><rect width="113.36" height="113.36" style="fill:none"/><path d="M56.9,94.88c.16-8.83,3.72-17,6.86-25.07C67,61.41,70.25,53,72.27,44.16a74.27,74.27,0,0,0,2-14.83c0-.22-.33-.22-.34,0-.25,9.24-2.53,18.23-5.5,26.94C65.57,64.58,62,72.61,59.2,80.94a47.07,47.07,0,0,0-2.64,13.94c0,.22.33.22.34,0Z" style="fill:#c03f4b"/><path d="M73.53,33.53a124.31,124.31,0,0,1-.91-15.43,34.84,34.84,0,0,1,.29-4.9A27.54,27.54,0,0,1,78.84.47a13.91,13.91,0,0,1,2,5.84,22.72,22.72,0,0,1-.52,6.62,66.36,66.36,0,0,1-3.4,11.7,22.4,22.4,0,0,1,1.62-2.71c2.54-3.27,3.7-3.81,7.44-5.39,1.06,2.4.07,5.21-1.2,7.51A32.05,32.05,0,0,1,73.88,35.58" style="fill:#c03f4b"/><path d="M69.61,52.63A13.55,13.55,0,0,1,64,46.39a24.89,24.89,0,0,1-2-8.6,8.84,8.84,0,0,1,.05-2.3.56.56,0,0,1,.17-.35c.17-.13.41,0,.6.07a15.53,15.53,0,0,1,6.39,6.55A13.34,13.34,0,0,1,70.6,50.1" style="fill:#c03f4b"/><path d="M65,66.88c.64-2.61,3.54-4.16,5.63-5.53s4.42-2.6,6.64-3.89a24.71,24.71,0,0,0,5.51-4.07,36,36,0,0,0,4.33-5.91c.12-.18-.18-.35-.29-.17A32.66,32.66,0,0,1,82,53.69a31.61,31.61,0,0,1-6.55,4.41,76.64,76.64,0,0,0-6.7,4.12c-1.69,1.18-3.55,2.45-4.07,4.57,0,.21.28.3.33.09Z" style="fill:#c03f4b"/><path d="M77.09,57.24a19.77,19.77,0,0,1,1.33-9.44,15.27,15.27,0,0,1,6-7.06c1.13,5.26-2.54,12.9-6.79,16.2" style="fill:#c03f4b"/><path d="M85.12,49.65a13.42,13.42,0,0,1,5.81-6.51,22.41,22.41,0,0,1,8.42-2.68c-.36,3.64-2.9,6.78-6,8.73s-6.7,2.87-10.27,3.64" style="fill:#c03f4b"/></g></g></svg>