<svg xmlns="http://www.w3.org/2000/svg" viewBox="0 0 113.36 113.36"><g id="Calque_2" data-name="Calque 2"><g id="Calque_1-2" data-name="Calque 1"><rect width="113.36" height="113.36" transform="translate(113.36 113.36) rotate(-180)" style="fill:none"/><path d="M56.72,93.59C57.4,88.42,54,85.52,50,82.28S45.38,79.6,42,74.79a4.67,4.67,0,0,0-1.53-1.47,1.66,1.66,0,0,0-2,.16,2.06,2.06,0,0,0-.45,1.13c-.78,5,2.17,12.93,8.6,17.3,3.82,2.61,5.91,1.11,9.51,4" style="fill:#e45055"/><path d="M56.74,94.59c.39-3-1.68-5.69-4-7.55s-5.08-3.24-7-5.52a3.34,3.34,0,0,0-.88-.84.94.94,0,0,0-1.13.09,1.25,1.25,0,0,0-.26.65,10.85,10.85,0,0,0,5.72,11.4c2.38,1.16,5.21,1.45,7.27,3.11" style="fill:#e8828b"/><path d="M55.66,95.36A32.65,32.65,0,0,1,81,70.27c-3.54,4.32-6.16,9.32-9.45,13.83S64,92.77,58.65,94.35" style="fill:#e45055"/><path d="M55.67,95.4C57.11,88.15,66,74.54,73.22,73.17,71.14,75.7,66.9,86.15,65,88.8s-4.4,5.08-7.54,6" style="fill:#e8828b"/><path d="M56.74,94.77c3-1.1,6-2.42,9.2-2.42a11.7,11.7,0,0,1,4.79,1.11C74.45,95,76,96.54,79.14,99c-2.29-.24-4.49.77-6.71,1.41-7.37,2.12-7.42,2.78-12.76-2.72" style="fill:#e45055"/><path d="M58,95.31a12.93,12.93,0,0,1,2.83,4.39A60.53,60.53,0,0,1,62.24,107a25.39,25.39,0,0,1,0,5.58,9.75,9.75,0,0,1-5.72-4.05c-1.29-2-3.22-8.6-2.35-10.83" style="fill:#e45055"/><path d="M58.41,94.76a5.64,5.64,0,0,1,1.26,1.95A26.67,26.67,0,0,1,60.3,100a11.42,11.42,0,0,1,0,2.48,4.31,4.31,0,0,1-2.55-1.8c-.57-.9-1.43-3.84-1-4.83" style="fill:#e8828b"/><path d="M54.66,94.87c-4.57-1.63-9.65.63-13.41,3.69s-2.3,4.61-6.43,7.18c4.79.61,5.13,1.57,9.37-.74a69.36,69.36,0,0,0,11.62-8.59" style="fill:#e45055"/><path d="M56.62,95.06c-2.11-.76-4.46.28-6.2,1.7s-3.17,3.24-5.08,4.42a10.76,10.76,0,0,0,6.44-1.44,31.84,31.84,0,0,0,5.37-4" style="fill:#e8828b"/><path d="M55.82,93.2c.56,0,1.1-.15,1.66-.17a2.23,2.23,0,0,1,1.57.45.91.91,0,0,1,.25.3,1,1,0,0,1,0,.75,1.81,1.81,0,0,1-.91,1,5.24,5.24,0,0,1-1.29.41l-.73.16a2,2,0,0,1-.73.06,1.26,1.26,0,0,1-.87-1.56,2.4,2.4,0,0,1,1.31-1.43" style="fill:#9d2125"/></g></g></svg>
