<svg xmlns="http://www.w3.org/2000/svg" viewBox="0 0 113.36 113.36"><g id="Calque_2" data-name="Calque 2"><g id="Calque_1-2" data-name="Calque 1"><rect width="113.36" height="113.36" style="fill:none"/><path d="M59.07,76.24a88.07,88.07,0,0,1-2.85,18,.38.38,0,0,0,.73.2,89.9,89.9,0,0,0,2.87-18.24c0-.48-.72-.48-.75,0Z" style="fill:#fcd3cf"/><path d="M59.42,76.78S52.8,61.39,53.29,52.89s3-12.7,3.47-15.42A44.39,44.39,0,0,0,57.25,31S58.74,42.91,59,54.54,59.5,74.39,59.42,76.78Z" style="fill:#fcd3cf"/><path d="M57.5,29.38s.74-.74,1.4,2.23,2.72,12,3.22,15.67a63,63,0,0,1-1,17.16,114,114,0,0,0-1.86,11.71s-.53-23.09-.7-28S57.28,31.79,57.25,31,57.22,29.6,57.5,29.38Z" style="fill:#ea98a3"/><path d="M59.27,76.38c-.07.1.51-11.46,2.5-14s2.89-2,4.16-2.46,2.71-3.13,4.2-3.6,2,.08,3.43-1,3.4-1.1,6-2.37,7.85-4.67,7.85-4.67-2,5.6-10.6,12.64S60.12,75.15,59.27,76.38Z" style="fill:#fcd3cf"/><path d="M59.27,78.79A9,9,0,0,1,64,74.34c3.35-1.23,11.24-3.44,12.3-4.2s-1.19-.51-1.74-.59S80.69,67,81.45,66s-.3-.89-.93-.94,8-9.75,8-15.56c0,0,.43-2.67-1.1-1.23s.3,3.52-10.56,12.47-17,13.7-17.43,15A7.67,7.67,0,0,0,59.27,78.79Z" style="fill:#cd555f"/></g></g></svg>