<svg xmlns="http://www.w3.org/2000/svg" viewBox="0 0 113.36 113.36"><g id="Calque_2" data-name="Calque 2"><g id="Calque_1-2" data-name="Calque 1"><rect width="113.36" height="113.36" transform="translate(113.36 113.36) rotate(-180)" style="fill:none"/><path d="M100.62,24.79a.76.76,0,0,0-.23-.29,2.31,2.31,0,0,0,.26-1.66,2.57,2.57,0,0,0-1.58-1.46,2.15,2.15,0,0,0-1.65,0,2.06,2.06,0,0,0-.51.34c-.19-.4-.37-.79-.81-.94a4.35,4.35,0,0,0-2.68-.13,1.47,1.47,0,0,0-.81.94,2.3,2.3,0,0,0-1.15.19c-.64.3-1.38.73-1.54,1.36a2.89,2.89,0,0,0,.44,1.66l0,0a2.29,2.29,0,0,0-.44.5,47.07,47.07,0,0,0-6.68,4.8A44.15,44.15,0,0,0,82,13.34a2,2,0,0,0,2.17-1.43c1.34,0,3-1.13,3-2.44a1.9,1.9,0,0,0-.58-1.38,2.51,2.51,0,0,0,1.91-1.8A3.67,3.67,0,0,0,88,3.68a3.74,3.74,0,0,0-3-1.36,1.09,1.09,0,0,0-.29-.6,4.46,4.46,0,0,0-2.67-1,1.74,1.74,0,0,0-.92.18,2.47,2.47,0,0,0-.89-.21,2.8,2.8,0,0,0-2.16.54A3.06,3.06,0,0,0,77.72,3c-.94.12-1.77.52-1.9,1.43a4.58,4.58,0,0,0,0,2A5.28,5.28,0,0,0,76.55,8a2.82,2.82,0,0,0-.1.58,2.48,2.48,0,0,0,.62,2,3,3,0,0,0,1.72.76,2.09,2.09,0,0,0,.56-.06s0,0,0,.07a1.81,1.81,0,0,0,1.35,1.88.6.6,0,0,0-.06.53,38.4,38.4,0,0,1,1.26,6.7A19.49,19.49,0,0,0,78,17.18l0-.05L78,17.05a1.78,1.78,0,0,0,.32-1.13,1.28,1.28,0,0,0-1.43-1.31c-1.08,0-1.22.48-1.61.7a1.25,1.25,0,0,0-1.73-.64c-.5.2-.63.92-.61,1.37-1.57.56-1.44,1.65-1.11,2.22a1.76,1.76,0,0,0,.61.67,1.29,1.29,0,0,0-.15.92,1.46,1.46,0,0,0,.89.81,1.22,1.22,0,0,0,.92,0,1.18,1.18,0,0,0,.25-.19.72.72,0,0,0,.48.52,1.84,1.84,0,0,0,1.33-.08,1.35,1.35,0,0,0,.44-.41,1.23,1.23,0,0,0,.82-.07c.36-.17.77-.41.86-.76a1.28,1.28,0,0,0-.19-.8,18.29,18.29,0,0,1,3.49,3.21.61.61,0,0,0,.51.2,51.44,51.44,0,0,1-.35,9.2.6.6,0,0,0-.08.57c0,.37-.09.75-.15,1.12,0,.08,0,.16,0,.24l-.13-.22a1.31,1.31,0,0,0-.92-.78,1.83,1.83,0,0,0-.16-.91c-.23-.5-.6-1.27-1.1-1.4s-.94.22-1.35.41a1.63,1.63,0,0,0-.35.23s0,0,0-.05c-.42-.91-1.35-1-2.25-.54A1.7,1.7,0,0,0,74,31.68a4.53,4.53,0,0,0-.89,3.87.61.61,0,0,0,.2.24,1.8,1.8,0,0,0-.22,1.31,2.11,2.11,0,0,0,1.26,1.17,1.9,1.9,0,0,0,1.2.06,62.45,62.45,0,0,0,0,10.05c-1.57-2.29-2.79-4-4.31-5.92v0c-.31-.4-.53-.59-.89-1a2.16,2.16,0,0,0-.09-1.07,1.53,1.53,0,0,0-.17-.41,1.25,1.25,0,0,0,.73-.53A4.4,4.4,0,0,0,71,36.62a1.69,1.69,0,0,0-.42-.81,2.24,2.24,0,0,0,0-.89,2.73,2.73,0,0,0-1.08-1.86,3,3,0,0,0-1.8.12l0,0a2.51,2.51,0,0,0-.43-.57,1.21,1.21,0,0,0-.92-.47,1.68,1.68,0,0,0-.55,0c-.08,0-1,.38-1.09.4a1.72,1.72,0,0,0-1.13.8,2,2,0,0,0-1.36-.17,3.74,3.74,0,0,0-2.07,1.4,7,7,0,0,0-.22,2.61,2.17,2.17,0,0,0-.71,2.54c.28,1.14,1,2,2,1.9.39,1.24,1.87,2.48,3.1,2.17a1.84,1.84,0,0,0,1.13-.92,2.42,2.42,0,0,0,2.19,1.29,2.59,2.59,0,0,0,2-.88l.08-.2a9.22,9.22,0,0,1,.86,1.1,8.76,8.76,0,0,0,1,1.4,26.85,26.85,0,0,1,5,7.44.05.05,0,0,0,0,0c-1.3,4.41-2.64,8.81-4.22,13.13A84.46,84.46,0,0,1,55.36,94.31c-.62.69.4,1.7,1,1a85.15,85.15,0,0,0,11-15.17c4.91-8.63,7.92-18.1,10.7-27.59a27.24,27.24,0,0,1,3-1.58A2.38,2.38,0,0,0,83,53c.1,1.72,1.6,3.78,3.29,3.78A2.47,2.47,0,0,0,88,56a3.2,3.2,0,0,0,2.41,2.35,4.7,4.7,0,0,0,3.31-.87,3.35,3.35,0,0,0,.48-2.32,3,3,0,0,0-.4-1.5l.36,0a2.38,2.38,0,0,0,1.9-.46,5.83,5.83,0,0,0,1.19-3.48A2.34,2.34,0,0,0,97,48.52a3.14,3.14,0,0,0,.22-1.15,3.6,3.6,0,0,0-.8-2.74,4,4,0,0,0-2.35-.42h0a2.41,2.41,0,0,0-2.11-1.95c-.11,0-1.42.16-1.53.16a2.24,2.24,0,0,0-1.92.89,3,3,0,0,0-1.55-.43c-1,0-2.46,0-3,.69s-.34,1.67-.34,2.45a3,3,0,0,0,.1.72h-.09c-1.58,0-2.36,1.18-2.49,2.7-.81.35-1.59.74-2.37,1.16.27-.93.54-1.85.8-2.77A109.26,109.26,0,0,0,83,32.21,45.24,45.24,0,0,1,89.89,27c.16.26.41.66.43.71a1.64,1.64,0,0,0,1.16,1,2.34,2.34,0,0,0,.2,1.15c.29.62.76,1.59,1.38,1.76s1.19-.28,1.7-.52a2.16,2.16,0,0,0,.43-.29l0,.07c.53,1.13,1.69,1.2,2.83.67a2.15,2.15,0,0,0,1.46-1.85C100.53,28.89,101.12,25.86,100.62,24.79ZM77.35,50.05c-.06.22-.13.43-.19.64a62.68,62.68,0,0,1-.24-11.86,3.1,3.1,0,0,0,1.9,0,1.18,1.18,0,0,0,.65-.74,1.75,1.75,0,0,0,.92-.16l.2-.1C79.7,42,78.54,46,77.35,50.05Z" style="fill:#fcd3cf"/></g></g></svg>