<svg xmlns="http://www.w3.org/2000/svg" viewBox="0 0 113.36 113.36"><g id="Calque_2" data-name="Calque 2"><g id="Calque_1-2" data-name="Calque 1"><rect width="113.36" height="113.36" transform="translate(113.36 113.36) rotate(-180)" style="fill:none"/><path d="M56.93,94.49c-.16-8.59-3.47-16.56-6.55-24.43-3.31-8.46-6.6-17-8.75-25.84a77.21,77.21,0,0,1-2.25-16.07.18.18,0,0,0-.35,0c.25,9.06,2.41,17.9,5.28,26.46s6.45,16.6,9.33,25a49.12,49.12,0,0,1,3,14.86c0,.22.35.22.34,0Z" style="fill:#c03f4b"/><path d="M39.84,33.69a125.44,125.44,0,0,0,.92-15.62,35.7,35.7,0,0,0-.29-5,27.88,27.88,0,0,0-6-12.88,14,14,0,0,0-2,5.9A23,23,0,0,0,33,12.84a66.75,66.75,0,0,0,3.44,11.83,22.38,22.38,0,0,0-1.64-2.74c-2.57-3.31-3.75-3.85-7.52-5.45-1.08,2.43-.08,5.27,1.21,7.6a32.23,32.23,0,0,0,11,11.68" style="fill:#c03f4b"/><path d="M43.81,53a13.78,13.78,0,0,0,5.71-6.32,25.23,25.23,0,0,0,2-8.7,9.07,9.07,0,0,0,0-2.33.56.56,0,0,0-.17-.35c-.17-.14-.42,0-.61.06A15.75,15.75,0,0,0,44.24,42a13.5,13.5,0,0,0-1.44,8.44" style="fill:#c03f4b"/><path d="M49.51,67.74c-.47-1.88-2.23-3.15-3.71-4.24A70.77,70.77,0,0,0,38.71,59a38.84,38.84,0,0,1-7-4.5,30.63,30.63,0,0,1-5.32-6.86c-.12-.18-.42,0-.3.18a34.16,34.16,0,0,0,4.64,6.24,27.84,27.84,0,0,0,6,4.27c2.33,1.31,4.66,2.61,6.87,4.11,2,1.31,4.9,2.95,5.52,5.4a.17.17,0,0,0,.33-.09Z" style="fill:#c03f4b"/><path d="M36.24,57.68a20.08,20.08,0,0,0-1.35-9.55,15.43,15.43,0,0,0-6-7.15C27.72,46.3,31.43,54,35.73,57.38" style="fill:#c03f4b"/><path d="M28.12,50a13.63,13.63,0,0,0-5.89-6.59,22.88,22.88,0,0,0-8.52-2.71c.37,3.68,2.93,6.86,6.06,8.83a31.85,31.85,0,0,0,10.39,3.69" style="fill:#c03f4b"/><path d="M41.88,45.16c-.52-2.84,1.19-5.29,2.67-7.56,1.35-2.09,2.88-4.06,4.36-6.07a26.75,26.75,0,0,0,3.42-5.78A33.87,33.87,0,0,0,54.11,18c0-.22-.3-.31-.34-.09a31.35,31.35,0,0,1-2,8.27,35,35,0,0,1-4.19,6.53,75.13,75.13,0,0,0-4.39,6.38C42,41,41.13,43,41.55,45.26c0,.22.37.12.33-.1Z" style="fill:#c03f4b"/><path d="M48.85,31.14a20.09,20.09,0,0,1-2.64-9.28,15.42,15.42,0,0,1,2.62-9c3.2,4.4,2.94,13,.36,17.77" style="fill:#c03f4b"/><path d="M53.16,20.82a13.58,13.58,0,0,1,2.72-8.4,22.87,22.87,0,0,1,6.68-5.93c1.16,3.51.11,7.46-2,10.53s-5,5.4-8,7.58" style="fill:#c03f4b"/><path d="M49.81,27.38a.77.77,0,0,0-1.52-.05,2.8,2.8,0,0,1-.07.59c-.1.22-.34.33-.47.53a.61.61,0,0,0,.32.88,1.12,1.12,0,0,1,.31.1c.19.13.18.41.24.63a.78.78,0,0,0,1.11.41,2,2,0,0,1,.39-.25,2.78,2.78,0,0,1,.5,0c.49,0,.71-.62.83-1.1a2.68,2.68,0,0,0,.1-1,.88.88,0,0,0-.59-.73,4.36,4.36,0,0,1-.62-.07,1.79,1.79,0,0,0-.39-.2c-.14,0-.32.14-.22.25" style="fill:#ea98a3"/><path d="M35.2,53.37a.61.61,0,0,1,.7.07,1.22,1.22,0,0,1,.35.65,1.29,1.29,0,0,1,0,.89.61.61,0,0,1-.77.29,1.31,1.31,0,0,1-.5,1.15c-.38.22-1-.06-.92-.49A.75.75,0,0,1,33,56.1a.67.67,0,0,1,.09-1,.66.66,0,0,1-1-.3c-.1-.42.25-.81.58-1.08.16-.13.37-.27.56-.18a.76.76,0,0,1,.44-.87.76.76,0,0,1,.92.31.82.82,0,0,1,1.25-.33,1.54,1.54,0,0,1,.5,1.38" style="fill:#ea98a3"/><path d="M35.51,56.9a.42.42,0,0,1-.41-.29.86.86,0,0,1,0-.55.89.89,0,0,1,.36-.54.45.45,0,0,1,.6.09,1,1,0,0,1,.74-.54c.32,0,.61.41.4.65A.55.55,0,0,1,38,56a.49.49,0,0,1-.44.63.48.48,0,0,1,.54.57c-.09.3-.45.42-.76.47-.15,0-.34,0-.42-.09a.56.56,0,0,1-.6.39.57.57,0,0,1-.48-.54.59.59,0,0,1-.91-.25,1.12,1.12,0,0,1,.19-1" style="fill:#ea98a3"/><path d="M54.61,27.25c.34-.06.63.27.75.6A1.15,1.15,0,0,1,55.23,29a.64.64,0,0,1-1-.06.71.71,0,0,1-.7.65.7.7,0,0,1-.65-.7,1.83,1.83,0,0,1-.72.22.29.29,0,0,1-.22,0,.3.3,0,0,1-.07-.15,1,1,0,0,1,.55-1.08.93.93,0,0,1-.54-1.11A.92.92,0,0,1,53,26.1a.93.93,0,0,1,.65-.48.48.48,0,0,1,.56.46.93.93,0,0,1,.62-.12c.21.06.36.34.22.5a.66.66,0,0,1,.85.27.67.67,0,0,1-.25.86" style="fill:#ea98a3"/><path d="M53.11,25.06a1.58,1.58,0,0,1,.2,1.05.92.92,0,0,1-.11.52.34.34,0,0,1-.46.13c-.09-.06-.14-.18-.24-.21s-.34.32-.57.3-.19-.49-.42-.62-.38.08-.58.11a.42.42,0,0,1-.16-.83c-.37.13-.71-.33-.63-.7a1.63,1.63,0,0,1,.69-.89,1.38,1.38,0,0,1,.65-.35A.49.49,0,0,1,52,24,1.56,1.56,0,0,1,54,25.18a.91.91,0,0,1-.44,1" style="fill:#ea98a3"/></g></g></svg>
