<svg xmlns="http://www.w3.org/2000/svg" viewBox="0 0 113.36 113.36"><g id="Calque_2" data-name="Calque 2"><g id="Calque_1-2" data-name="Calque 1"><rect width="113.36" height="113.36" style="fill:none"/><path d="M5,16.63a9,9,0,0,1-2-5.07,3.61,3.61,0,0,1,.41-2.25,2.91,2.91,0,0,1,2-1.22,5.14,5.14,0,0,1,3.73,1,10.85,10.85,0,0,1,2.61,3,26.54,26.54,0,0,1,2.82,5.7" style="fill:#e45055"/><path d="M10.39,12.8A9.75,9.75,0,0,1,8,7.32a3.71,3.71,0,0,1,.43-2.41,3.22,3.22,0,0,1,2.24-1.27,6,6,0,0,1,4.22,1.14,12.15,12.15,0,0,1,3,3.2,28.31,28.31,0,0,1,3.25,6.15" style="fill:#e45055"/><path d="M15.84,8.2c-.33-1.31-.63-2.77,0-3.95a4,4,0,0,1,2.63-1.67,3.92,3.92,0,0,1,2.15.06A3.63,3.63,0,0,1,22,3.58a7.33,7.33,0,0,1,1.77,4.56,21.81,21.81,0,0,1-.44,5" style="fill:#e45055"/><path d="M17.08,8.71A3.26,3.26,0,0,0,15.3,6.79a3.75,3.75,0,0,0-2.49.3,4.58,4.58,0,0,0-1.8,1c-1,1-1.14,2.6-1.21,4,0,0,.32,5.75,2.52,8.36S17,19.64,17,19.64,17.47,10.29,17.08,8.71Z" style="fill:#e8828b"/><path d="M16.87,26.26c-3.22-.93-7.42-2.78-9.9-5.11a10.35,10.35,0,0,1-3.13-4.8A6.2,6.2,0,0,1,5,10.73a5.14,5.14,0,0,1,5.16-1.38,7.55,7.55,0,0,1,4.22,3.52,16.3,16.3,0,0,1,1.86,5.45,34.31,34.31,0,0,1,.55,7.16" style="fill:#e45055"/><path d="M14.57,17.25A14.77,14.77,0,0,1,16.33,7a4.17,4.17,0,0,1,1.44-1.59A3.51,3.51,0,0,1,21,5.68a8,8,0,0,1,3.62,4.49A16.06,16.06,0,0,1,25.36,16a8.86,8.86,0,0,1-.72,3.68,8.42,8.42,0,0,1-1.86,2.26c-2.08,1.91-3.24,3.13-5.88,4.14" style="fill:#e45055"/><path d="M24.26,32.5c-3.83-2-7.7-4.09-10.89-7a8.13,8.13,0,0,1-2.06-2.58c-.4-.89-.42-2.12.4-2.63a1.88,1.88,0,0,1,1.34-.19,4.85,4.85,0,0,1,2.5,1.44,3.3,3.3,0,0,1,.24-1.21,1.21,1.21,0,0,1,.94-.73,1.54,1.54,0,0,1,.75.21,5,5,0,0,1,2.25,2.42A5.31,5.31,0,0,1,21,19.58,2.4,2.4,0,0,1,23.68,19a3,3,0,0,1,1.07,1.12,10.87,10.87,0,0,1,1.41,5.79,43.19,43.19,0,0,1-.65,6c-.05.39-.11.78-.16,1.18" style="fill:#844439"/><path d="M22.83,30c3.19,3.31,4.79,7.64,6.29,11.9q2.47,7,5.34,13.82A193.3,193.3,0,0,0,47.39,81.35a133.88,133.88,0,0,0,9.08,13.09c.22.29.63-.12.4-.41C44.73,78.6,36.25,60.39,29.74,42,28.19,37.54,26.55,33,23.23,29.6c-.25-.26-.66.14-.4.41Z" style="fill:#844439"/></g></g></svg>
