<svg xmlns="http://www.w3.org/2000/svg" viewBox="0 0 113.36 113.36"><g id="Calque_2" data-name="Calque 2"><g id="Calque_1-2" data-name="Calque 1"><rect width="113.36" height="113.36" style="fill:none"/><path d="M46.48,86A20.92,20.92,0,0,0,51,91.57c2.15,1.86,5.06,2.77,7.72,3.64.46.15.66-.58.2-.72-2.59-.85-5.43-1.72-7.51-3.56a24,24,0,0,1-4.7-5.73c-.23-.43-.49.36-.26.79Z" style="fill:#fcd3cf"/><path d="M46.44,85.86a22,22,0,0,0-7.09-6.93C35,76.51,29.67,73,25.8,70.87A12.88,12.88,0,0,0,19.19,69s3.14,1.7,8.22,7.26S37.89,85,46.44,85.86Z" style="fill:#ea98a3"/><path d="M40.08,79.36S36.13,76.05,35.78,69s1.16-14.39,1.45-16.54.18-3.48.82-2.55,5.27,9.69,7,13.46,3.94,13,3.36,16.88a13.19,13.19,0,0,1-1.89,5.62A22,22,0,0,0,40.08,79.36Z" style="fill:#fcd3cf"/></g></g></svg>