<svg xmlns="http://www.w3.org/2000/svg" viewBox="0 0 113.36 113.36"><g id="Calque_2" data-name="Calque 2"><g id="Calque_1-2" data-name="Calque 1"><path d="M52.22,96.63c1.68.4,3,.77,4.58-.19,1.43,1.09,6,.79,7.47-1.86s.79-6-.06-8.88C62.78,80.85,61,75,58.58,70.49c-3.09-5.69-7.11-9.76-11.74-14.28-3.46-3.38-5.7-7.46-9.78-10.07a27.89,27.89,0,0,0-5.33-2.33.67.67,0,0,0-.83.91c3,6.35,4.59,11.68,6.77,19.23,1.82,6.29,5.72,12.51,7.52,18.81,1.1,3.85.78,7.36,2.29,10.28a7.12,7.12,0,0,0,4.7,3.58Z" style="fill:#fcd3cf"/><rect width="113.36" height="113.36" style="fill:none"/></g></g></svg>