<svg xmlns="http://www.w3.org/2000/svg" viewBox="0 0 113.36 113.36"><g id="Calque_2" data-name="Calque 2"><g id="Calque_1-2" data-name="Calque 1"><rect width="113.36" height="113.36" style="fill:none"/><path d="M56.27,94.61a94.88,94.88,0,0,0-4.11-17.28,127.44,127.44,0,0,0-6.54-15.2c-5-10-10.35-19.87-16.92-28.92A82.15,82.15,0,0,0,16.28,19.29c-.3-.26.14-.71.45-.44,8.45,7.34,14.91,16.83,20.55,26.42,2.85,4.85,5.5,9.83,8,14.86A147.25,147.25,0,0,1,52,75a94.71,94.71,0,0,1,4.9,19.46c0,.39-.55.56-.61.17Z" style="fill:#ea98a3"/><path d="M12.58,20.38a8.34,8.34,0,0,0,4,2.47c1.73.45,2.36-1.16,3.55-2.25.91-.83,3-1.16,3-2.45A7.24,7.24,0,0,0,21,13c-1.84-2-6.55-2.78-9.29-3.3a2.09,2.09,0,0,0-2.5,2.15A15.3,15.3,0,0,0,12.58,20.38Z" style="fill:#ea98a3"/><path d="M8.08,34.61a7.93,7.93,0,0,0,4.37.7c1.67-.24,1.64-1.87,2.27-3.25C15.2,31,16.88,30,16.45,28.85a6.87,6.87,0,0,0-3.77-3.68C9.39,23.66,2,26.36,1.42,25.9,1.1,28.4,4.79,33.09,8.08,34.61Z" style="fill:#ea98a3"/><path d="M24.59,68.19a9.11,9.11,0,0,0,5.11.54c1.92-.37,1.79-2.25,2.44-3.9.5-1.24,2.38-2.54,1.81-3.83a7.88,7.88,0,0,0-4.59-4c-3.92-1.57-12.36,2-13,1.52C16.11,61.39,20.67,66.62,24.59,68.19Z" style="fill:#ea98a3"/><path d="M48,24a8.13,8.13,0,0,1-.66,4.51c-.75,1.56-2.33,1-3.89,1.23-1.18.15-2.71,1.48-3.69.7a7,7,0,0,1-2.45-4.84c-.48-3.71,4.47-10.16,4.19-10.84C44,15.22,47.48,20.3,48,24Z" style="fill:#ea98a3"/><path d="M20.13,39.41a7.21,7.21,0,0,1,4.05.23c1.45.54,1.11,2,1.41,3.35.23,1,1.53,2.29.92,3.22a6.27,6.27,0,0,1-4.1,2.57c-3.26.71-9.38-3.16-10-2.85C12.65,43.62,16.87,40.13,20.13,39.41Z" style="fill:#ea98a3"/><path d="M27,16a7.31,7.31,0,0,0-.64,4c.23,1.55,1.73,1.52,3,2.1,1,.45,1.94,2,3,1.6a6.32,6.32,0,0,0,3.4-3.5c1.4-3.06-1.12-9.94-.69-10.45C32.74,9.5,28.39,12.93,27,16Z" style="fill:#ea98a3"/><path d="M30.38,19.28c1,4-1.11,7.83-3.13,11.18a.31.31,0,0,1-.54-.32c1.92-3.19,4-6.83,3.07-10.69a.31.31,0,0,1,.6-.17Z" style="fill:#ea98a3"/><path d="M54.82,47.15a7.31,7.31,0,0,0-4.1.2c-1.47.53-1.13,2-1.44,3.38-.24,1-1.57,2.3-1,3.24a6.31,6.31,0,0,0,4.12,2.62c3.28.75,9.5-3.11,10.09-2.8C62.34,51.46,58.1,47.9,54.82,47.15Z" style="fill:#ea98a3"/><path d="M52.51,50.91c-3.75-1.83-7.89-.5-11.58.79a.31.31,0,0,0,.2.59c3.52-1.23,7.51-2.57,11.1-.82.36.17.64-.39.28-.56Z" style="fill:#ea98a3"/><path d="M35.68,43.68a29.17,29.17,0,0,0-16.61.15.29.29,0,0,1-.17-.55,29.68,29.68,0,0,1,16.91-.16c.36.09.24.66-.13.56Z" style="fill:#ea98a3"/><path d="M37.31,46a11.1,11.1,0,0,0,2.42-3.81,37.24,37.24,0,0,0,1.87-5.7A40.19,40.19,0,0,0,43,24.68c0-.4.61-.4.63,0a41.09,41.09,0,0,1-1.52,12.23c-.81,3.18-1.87,7.19-4.37,9.52-.3.27-.74-.17-.45-.45Z" style="fill:#ea98a3"/><path d="M46.66,64.14c-3.27.1-6.52.78-9.8.9a38.87,38.87,0,0,1-15.12-2.25c-.38-.15-.22-.75.16-.61A38.75,38.75,0,0,0,37.18,64.4c3.17-.13,6.31-.79,9.48-.89.4,0,.4.62,0,.63Z" style="fill:#ea98a3"/><path d="M30.21,35.58a6.89,6.89,0,0,0-3.33-1.2l-3.66-.69c-2.43-.47-4.85-1-7.26-1.58a86.46,86.46,0,0,1-13.79-4.5c-.37-.16,0-.7.32-.54a87.64,87.64,0,0,0,14.78,4.71c2.41.57,4.84,1.07,7.27,1.53,2,.38,4.45.46,6.11,1.83.31.25-.14.69-.44.44Z" style="fill:#ea98a3"/></g></g></svg>