<svg xmlns="http://www.w3.org/2000/svg" viewBox="0 0 113.36 113.36"><g id="Calque_2" data-name="Calque 2"><g id="Calque_1-2" data-name="Calque 1"><rect width="113.36" height="113.36" style="fill:none"/><path d="M53.41,97.07s0,.12.84-.74c1.51-1.49,3.64-3.92,4-6,.58-3.3-2-5.72,1-14S65.49,58.63,67,54.41s6-8.61,7.6-13.23a46.91,46.91,0,0,1,3.51-7.91s3.76,10.6,3.08,15.49,2.88,8.88.09,14.49-1.16,6.6-4.83,12.46-7.76,9.74-11.25,11.36-5.94,4.53-7.56,6.55a18.83,18.83,0,0,1-3,3.08C53.67,97.48,53.41,97.07,53.41,97.07Z" style="fill:#fcd3cf"/></g></g></svg>