<svg xmlns="http://www.w3.org/2000/svg" viewBox="0 0 113.36 113.36"><g id="Calque_2" data-name="Calque 2"><g id="Calque_1-2" data-name="Calque 1"><path d="M37.56,11.21c2.21,0,5.24-1.38,6.15-3.25s0-4-2.91-5.61C38.64,1.16,33.49-.95,31.88.8c-.57.62-.81,3-.55,4.94.32,2.28.76,4.79,3.12,5.4C34.45,11.14,36.82,11.22,37.56,11.21Z" style="fill:#c03f4b"/><rect width="113.36" height="113.36" transform="translate(113.36 113.36) rotate(-180)" style="fill:none"/><path d="M43.4,19.93S41,17,41.87,14.6s2.62-4.58,2.9-5.95-.94-3.49-.94-3.49a7,7,0,0,0-3.45,4.19c-.24.79-.55.16-.9-.31s-1.89-2.71-2.94-3.22c-.79,1.57.15,4.2.23,4.67s0,.43-.35.35-2.82-1.65-4.24-2c-.51,1.73,2.91,4.47,4,5.14s2.71.11,4.59,2.54A13.3,13.3,0,0,1,43,20.13Z" style="fill:#844439"/><path d="M40.84,16.08a170.65,170.65,0,0,1,9.85,29.48,190.46,190.46,0,0,1,5.57,31.51,118.57,118.57,0,0,1,0,17.88c0,.5.73.5.77,0a130.46,130.46,0,0,0-1.84-32.17,238.29,238.29,0,0,0-7.56-30.92A146.15,146.15,0,0,0,41.5,15.69c-.2-.45-.87-.06-.66.39Z" style="fill:#844439"/><path d="M47.34,30.58a15.78,15.78,0,0,0,8.74-6.14,2.26,2.26,0,0,0,.49-2.21,1.46,1.46,0,0,0-1.14-.7,2.82,2.82,0,0,0-1.37.23,9.8,9.8,0,0,0-3.59,2.88,14.61,14.61,0,0,0-3.55,6" style="fill:#844439"/><path d="M47.44,31a16.15,16.15,0,0,0,9-6.32A2.55,2.55,0,0,0,56.9,22a2.08,2.08,0,0,0-2.27-.85c-2,.38-3.47,2-4.7,3.48a14.65,14.65,0,0,0-3.38,5.86.38.38,0,0,0,.74.21,12.32,12.32,0,0,1,2.45-4.63,14.19,14.19,0,0,1,3.66-3.59c.7-.42,1.8-.95,2.56-.39s0,1.75-.39,2.36a14.89,14.89,0,0,1-3.46,3.4,15.28,15.28,0,0,1-4.87,2.32.38.38,0,0,0,.2.74Z" style="fill:#844439"/><path d="M47.86,33.82c-1.21-2-3.46-3-5.65-3.75S37.33,28.8,35,29.59c-.47.16-1,.45-1.07.94s.52,1.11,1.09,1.4A21,21,0,0,0,47.92,34" style="fill:#844439"/><path d="M48.19,33.62a9.41,9.41,0,0,0-4.59-3.45,15.25,15.25,0,0,0-6.87-1.33,4.77,4.77,0,0,0-2.73.88,1.3,1.3,0,0,0,0,1.91,7.58,7.58,0,0,0,2.75,1.49,21.3,21.3,0,0,0,3.41,1,21.64,21.64,0,0,0,7.9.22c.48-.07.28-.81-.21-.74a20.75,20.75,0,0,1-7.37-.19,21.65,21.65,0,0,1-3.52-1.07c-.63-.26-3.66-1.4-2.16-2.27a6.63,6.63,0,0,1,3.71-.49,16.89,16.89,0,0,1,3.72.86c2,.68,4.13,1.66,5.33,3.53.26.42.93,0,.66-.39Z" style="fill:#844439"/><path d="M50.69,43.89a12.79,12.79,0,0,0,4.57-2.44A8.61,8.61,0,0,0,58,37.13a1.11,1.11,0,0,0,0-.82,1,1,0,0,0-1-.38,5,5,0,0,0-2.67,1.33A10.56,10.56,0,0,0,50.78,44" style="fill:#844439"/><path d="M50.79,44.26c3.23-1,6.26-3.1,7.42-6.4.23-.66.52-1.54-.13-2a2.29,2.29,0,0,0-2.1,0,8.39,8.39,0,0,0-3.67,3.13A11.13,11.13,0,0,0,50.4,44c-.06.49.71.49.77,0a10,10,0,0,1,4-6.9,3.62,3.62,0,0,1,2-.75c.33,0,.6.08.58.46a3.46,3.46,0,0,1-.28,1A8.48,8.48,0,0,1,55,41.18a12.3,12.3,0,0,1-4.4,2.34c-.47.14-.27.89.2.74Z" style="fill:#844439"/><path d="M53.77,55.32c2.7-1.13,5.48-2.31,7.52-4.42.43-.44.85-1.07.58-1.63a1.24,1.24,0,0,0-.74-.56,3.89,3.89,0,0,0-2.76.37c-2.5,1.12-4.67,3.38-4.9,6.1" style="fill:#844439"/><path d="M53.87,55.69a37.9,37.9,0,0,0,4.65-2.19,15.54,15.54,0,0,0,2.07-1.43,5.11,5.11,0,0,0,1.62-1.84,1.34,1.34,0,0,0-.66-1.76,3.31,3.31,0,0,0-2.4-.09,9.32,9.32,0,0,0-3.9,2.38,7.35,7.35,0,0,0-2.17,4.42c0,.5.72.49.77,0,.25-2.54,2.23-4.56,4.43-5.64A4.67,4.67,0,0,1,60.37,49a1.58,1.58,0,0,1,1,.3c.31.28.16.66,0,1a6.72,6.72,0,0,1-1.53,1.48A15.77,15.77,0,0,1,58,52.91a39,39,0,0,1-4.34,2c-.45.19-.26.93.2.74Z" style="fill:#844439"/><path d="M53.91,60.55a6.45,6.45,0,0,0-2.66-3.49A8,8,0,0,0,46,55a1.73,1.73,0,0,0-1.38.65c-.44.7.07,1.61.68,2.16a10.13,10.13,0,0,0,2.92,1.69,38.88,38.88,0,0,0,6.11,2" style="fill:#844439"/><path d="M54.28,60.45a6.75,6.75,0,0,0-2.72-3.63,9.35,9.35,0,0,0-4.63-2.16,3.27,3.27,0,0,0-2.15.37,1.54,1.54,0,0,0-.59,1.75c.47,1.6,2.37,2.44,3.77,3a38.81,38.81,0,0,0,6.31,2.07c.48.11.69-.63.2-.74a38.73,38.73,0,0,1-4.57-1.38,13.32,13.32,0,0,1-4.16-2.08c-.45-.38-1.09-1.09-.79-1.72s1.25-.59,1.82-.54a7.88,7.88,0,0,1,3.95,1.73,6.45,6.45,0,0,1,2.82,3.5c.11.48.85.28.74-.2Z" style="fill:#844439"/><path d="M57,82.68A10.12,10.12,0,0,0,52.6,75.8,5.44,5.44,0,0,0,50.86,75a.87.87,0,0,0-.53,0c-.38.17-.35.72-.23,1.12a9.64,9.64,0,0,0,2.75,4.09,27.06,27.06,0,0,0,4,3" style="fill:#844439"/><path d="M57.32,82.58a10.52,10.52,0,0,0-4.76-7.26,3.53,3.53,0,0,0-2.2-.75c-.65.14-.79.83-.69,1.39a8.45,8.45,0,0,0,2.38,4,25.11,25.11,0,0,0,4.61,3.52c.42.27.8-.39.39-.66-2.36-1.54-4.87-3.18-6.16-5.78-.15-.28-.75-1.36-.43-1.67.16-.17.82.15,1,.23a6.84,6.84,0,0,1,.95.54,9.34,9.34,0,0,1,2.66,2.69,10,10,0,0,1,1.52,4c.07.48.81.28.74-.21Z" style="fill:#844439"/><path d="M56.79,82.85a29.78,29.78,0,0,0,7-1.84A8.63,8.63,0,0,0,66,79.8a3.68,3.68,0,0,0,1.39-2.11A1.29,1.29,0,0,0,67,76.37a1.5,1.5,0,0,0-.78-.18,9.48,9.48,0,0,0-9.05,6.24" style="fill:#844439"/><path d="M56.9,83.22a30.44,30.44,0,0,0,6.58-1.69c1.71-.65,3.61-1.54,4.21-3.43A1.76,1.76,0,0,0,67.2,76a3.91,3.91,0,0,0-2.44-.16,9.87,9.87,0,0,0-4.61,1.92,9.67,9.67,0,0,0-3.34,4.53c-.17.47.57.67.74.2a9.19,9.19,0,0,1,6.15-5.65,8.1,8.1,0,0,1,2.07-.31c.39,0,1-.07,1.19.31a1.49,1.49,0,0,1-.07,1.17c-.63,1.66-2.56,2.36-4.08,2.91a30.61,30.61,0,0,1-6.12,1.52c-.49.06-.28.81.21.74Z" style="fill:#844439"/></g></g></svg>