<svg xmlns="http://www.w3.org/2000/svg" viewBox="0 0 113.36 113.36"><g id="Calque_2" data-name="Calque 2"><g id="Calque_1-2" data-name="Calque 1"><rect width="113.36" height="113.36" style="fill:none"/><path d="M56.52,92.33c0-.38,3.24-4.36,4.12-7.36s3.36-5,5.23-7.22,1.87-7.73.37-15.58,5.49-9.6,6.24-12.09-.13-8.48,2.74-12.84,7.23-13.09,7.6-17.2,1.25-1.12,2.24,1.5,4,17.44,5,20.93.25,6.61-1.12,9.73S90.42,59.55,86.68,65A48.89,48.89,0,0,1,75.84,76.5c-2.49,1.74.37,4.11-5.86,7.35s-9,3.24-10.34,5.86-4.11,7.23-4.11,7.23Z" style="fill:#fcd3cf"/></g></g></svg>