<svg xmlns="http://www.w3.org/2000/svg" viewBox="0 0 113.36 113.36"><g id="Calque_2" data-name="Calque 2"><g id="Calque_1-2" data-name="Calque 1"><path d="M64.67,75c0,8.15-1.41,14.66-4.77,16.67-.65.39-5.53-.14-6.24-.14-4.35,0-4.74-6.8-4.74-16.53s3.53-17.61,7.88-17.61S64.67,65.29,64.67,75Z" style="fill:#d94950;opacity:0.6"/><path d="M55.1,73.57c4.74,6.81,7.38,13,5.84,16.61-.29.69-4.54,3-5.11,3.38-3.5,2.44-7.77-3-13.43-11.17S35,65.68,38.51,63.25,49.44,65.43,55.1,73.57Z" style="fill:#d94950;opacity:0.73"/><path d="M49.79,77.8c5.21,2.47,8.79,5.69,8.66,9.29,0,.69-2.41,4.86-2.71,5.49-1.83,3.86-6.35,2.14-12.58-.81s-9.79-8.48-8-12.33S43.56,74.84,49.79,77.8Z" style="fill:#d94950;opacity:0.8"/><path d="M62.68,85.1c.28,4.75-.55,8.6-3,9.92-.47.26-4.16.17-4.69.2-3.26.2-3.79-3.75-4.12-9.42s2-10.43,5.29-10.62S62.34,79.42,62.68,85.1Z" style="fill:#d94950"/><path d="M71,88c-2.5,4.6-7.72,7.12-10.55,7-.55,0-1.33-1.42-1.79-1.67-2.88-1.56-1-5.54,1.94-11s7.73-8.68,10.6-7.12S73.94,82.49,71,88Z" style="fill:#d94950;opacity:0.91"/><path d="M74.8,84.67c-3.65,6-7.91,9.91-12,9.42-.79-.1-5.23-3.34-5.9-3.75-4.16-2.55-1.49-7.76,2.87-14.88S71,64.62,75.16,67.16,79.15,77.54,74.8,84.67Z" style="fill:#d94950;opacity:0.75"/><rect width="113.36" height="113.36" style="fill:none"/></g></g></svg>